<?xml version="1.0" encoding="UTF-8"?> <svg xmlns="http://www.w3.org/2000/svg" width="920" height="560" viewBox="0 0 920 560" fill="none"><path fill-rule="evenodd" clip-rule="evenodd" d="M350 50C350 22.3858 372.386 0 400 0V0C427.614 0 450 22.3858 450 50V170C450 197.614 427.614 220 400 220V220C372.386 220 350 197.614 350 170V50Z" fill="#115DBD"></path><path d="M470 50C470 22.3858 492.386 0 520 0V0C547.614 0 570 22.3858 570 50V50C570 77.6142 547.614 100 520 100H470V50Z" fill="#0C77FF"></path><path d="M847.183 506.722C865.656 506.722 881.419 498.582 888.808 484.522L890.778 503.515H918.364V320H888.562V397.205C880.926 385.118 865.902 377.965 848.907 377.965C812.209 377.965 790.042 405.098 790.042 443.083C790.042 480.823 811.962 506.722 847.183 506.722ZM853.833 479.096C832.898 479.096 820.09 463.803 820.09 442.097C820.09 420.391 832.898 404.851 853.833 404.851C874.769 404.851 888.315 420.144 888.315 442.097C888.315 464.05 874.769 479.096 853.833 479.096Z" fill="#002048"></path><path fill-rule="evenodd" clip-rule="evenodd" d="M890.778 503.515L888.808 484.522C888.537 485.038 888.254 485.547 887.961 486.047C880.258 499.169 864.978 506.722 847.183 506.722C811.962 506.722 790.042 480.823 790.042 443.083C790.042 405.098 812.209 377.965 848.907 377.965C865.189 377.965 879.662 384.53 887.562 395.709C887.908 396.199 888.241 396.697 888.562 397.205V320H918.364V503.515H890.778ZM887.562 394.022C879.283 383.203 864.896 376.965 848.907 376.965C830.294 376.965 815.295 383.855 804.961 395.62C794.639 407.37 789.042 423.901 789.042 443.083C789.042 462.142 794.578 478.304 804.655 489.717C814.744 501.142 829.311 507.722 847.183 507.722C864.734 507.722 880.014 500.475 888.131 487.687L889.877 504.515H919.364V319H887.562V394.022ZM829.858 468.071C835.47 474.376 843.625 478.096 853.833 478.096C864.049 478.096 872.394 474.432 878.19 468.15C883.994 461.861 887.315 452.869 887.315 442.097C887.315 431.325 883.994 422.268 878.187 415.916C872.388 409.573 864.044 405.851 853.833 405.851C843.63 405.851 835.475 409.629 829.861 415.996C824.234 422.376 821.09 431.436 821.09 442.097C821.09 452.758 824.234 461.754 829.858 468.071ZM820.09 442.097C820.09 463.803 832.898 479.096 853.833 479.096C874.769 479.096 888.315 464.05 888.315 442.097C888.315 420.144 874.769 404.851 853.833 404.851C832.898 404.851 820.09 420.391 820.09 442.097Z" fill="#121212"></path><path d="M716.576 506.721C748.349 506.721 769.666 492.389 775.688 465.75H747.856C743.559 477.343 733.571 482.055 717.069 482.055C697.118 482.055 685.788 471.202 683.572 449.743L775.195 449.496V440.37C775.195 402.384 752.043 377.965 715.591 377.965C679.877 377.965 655.001 404.357 655.001 442.59C655.001 480.329 680.37 506.721 716.576 506.721ZM715.837 402.631C733.817 402.631 745.393 413.73 745.393 430.503H684.311C687.266 412.25 698.104 402.631 715.837 402.631Z" fill="#002048"></path><path fill-rule="evenodd" clip-rule="evenodd" d="M776.939 464.75L776.663 465.971C773.602 479.515 766.633 489.983 756.355 497.049C746.093 504.106 732.607 507.721 716.576 507.721C698.221 507.721 682.56 501.026 671.49 489.5C660.423 477.977 654.001 461.686 654.001 442.59C654.001 423.255 660.294 406.843 671.174 395.255C682.059 383.664 697.477 376.965 715.591 376.965C734.048 376.965 749.226 383.153 759.787 394.233C770.343 405.307 776.195 421.174 776.195 440.37V450.493L684.689 450.74C685.895 460.767 689.173 468.228 694.364 473.226C699.733 478.396 707.277 481.055 717.069 481.055C725.24 481.055 731.683 479.886 736.581 477.361C741.443 474.855 744.851 470.979 746.918 465.403L747.16 464.75H776.939ZM683.683 450.742C686.145 471.539 697.431 482.055 717.069 482.055C733.571 482.055 743.559 477.343 747.856 465.75H775.688C775.612 466.085 775.534 466.419 775.453 466.75C769.128 492.748 747.949 506.721 716.576 506.721C680.37 506.721 655.001 480.329 655.001 442.59C655.001 404.357 679.877 377.965 715.591 377.965C752.043 377.965 775.195 402.384 775.195 440.37V449.496L683.572 449.743C683.606 450.079 683.643 450.412 683.683 450.742ZM736.67 411.003C731.747 406.339 724.621 403.631 715.837 403.631C707.154 403.631 700.267 405.982 695.195 410.471C690.339 414.769 687.047 421.114 685.499 429.503H744.379C744.158 421.807 741.385 415.47 736.67 411.003ZM745.379 429.503C744.927 413.291 733.457 402.631 715.837 402.631C698.43 402.631 687.668 411.899 684.482 429.503C684.422 429.834 684.365 430.167 684.311 430.503H745.393C745.393 430.168 745.389 429.834 745.379 429.503Z" fill="#121212"></path><path d="M597.687 503.405V434.637C597.687 423.817 600.837 418.801 606.709 413.821C612.58 408.842 618.113 406.525 626.92 406.525C629.799 406.525 632.424 406.899 634.795 407.648C637.166 408.397 639.792 409.604 642.671 411.269L655.12 388.547C650.885 385.384 646.863 383.137 643.052 381.805C639.241 380.474 632.424 378.393 621.246 379.808C610.067 381.223 602.785 388.297 598.212 394.623C597.366 391.692 592.792 379.33 592.792 379.33L567.641 381.67L567.725 503.405H597.687Z" fill="#002048"></path><path fill-rule="evenodd" clip-rule="evenodd" d="M593.261 379.157L592.792 379.33C593.261 379.157 593.261 379.156 593.261 379.157L593.46 379.694C593.586 380.038 593.768 380.533 593.99 381.135C594.432 382.34 595.03 383.978 595.655 385.708C596.689 388.568 597.802 391.698 598.396 393.531C603.04 387.362 610.282 380.692 621.183 379.312C632.461 377.884 639.359 379.985 643.217 381.333C647.088 382.686 651.156 384.962 655.419 388.146L655.767 388.406L642.864 411.958L642.421 411.702C639.563 410.05 636.972 408.86 634.645 408.125C632.33 407.394 629.756 407.025 626.92 407.025C622.561 407.025 619.038 407.598 615.889 408.774C612.739 409.95 609.938 411.739 607.033 414.203C604.127 416.667 601.928 419.112 600.449 422.252C598.968 425.394 598.187 429.275 598.187 434.637V503.905H567.226L567.141 381.214L593.128 378.797L593.261 379.157ZM592.456 379.863L568.141 382.126L568.225 502.905H597.187V434.637C597.187 429.179 597.981 425.141 599.544 421.826C601.107 418.508 603.42 415.955 606.386 413.44C609.352 410.924 612.253 409.064 615.539 407.837C618.825 406.61 622.471 406.025 626.92 406.025C629.842 406.025 632.519 406.405 634.946 407.172C637.238 407.895 639.749 409.035 642.478 410.582L654.472 388.689C650.395 385.684 646.534 383.552 642.887 382.277C639.124 380.962 632.388 378.902 621.309 380.304C610.326 381.694 603.151 388.644 598.617 394.916L598.016 395.747L597.732 394.761C597.315 393.316 595.967 389.512 594.715 386.047C594.091 384.32 593.493 382.684 593.051 381.48C592.83 380.878 592.648 380.383 592.521 380.04L592.456 379.863Z" fill="#121212"></path><path d="M529.387 357.246C539.239 357.246 547.367 349.106 547.367 338.993C547.367 328.88 539.239 320.987 529.387 320.987C519.043 320.987 510.915 328.88 510.915 338.993C510.915 349.106 519.043 357.246 529.387 357.246ZM514.363 503.515H544.412V381.665H514.363V503.515Z" fill="#002048"></path><path fill-rule="evenodd" clip-rule="evenodd" d="M513.363 504.515V380.665H545.412V504.515H513.363ZM548.367 338.993C548.367 349.648 539.802 358.246 529.387 358.246C518.498 358.246 509.915 349.666 509.915 338.993C509.915 328.303 518.516 319.987 529.387 319.987C539.784 319.987 548.367 328.32 548.367 338.993ZM544.412 503.515H514.363V381.665H544.412V503.515ZM547.367 338.993C547.367 349.106 539.239 357.246 529.387 357.246C519.043 357.246 510.915 349.106 510.915 338.993C510.915 328.88 519.043 320.987 529.387 320.987C539.239 320.987 547.367 328.88 547.367 338.993Z" fill="#121212"></path><path d="M459.286 381.665V445.55C459.286 468.736 450.173 479.836 431.207 479.836C414.459 479.836 405.346 470.463 405.346 447.277V381.665H375.297V457.883C375.297 487.729 391.799 506.722 419.878 506.722C436.133 506.722 451.897 498.829 459.286 487.236L461.502 503.515H489.334V381.665H459.286Z" fill="#002048"></path><path fill-rule="evenodd" clip-rule="evenodd" d="M458.286 380.665H490.334V504.515H460.629L458.641 489.916C450.553 500.655 435.4 507.722 419.878 507.722C405.602 507.722 394.169 502.886 386.315 494.164C378.473 485.456 374.297 472.984 374.297 457.883V380.665H406.346V447.277C406.346 458.769 408.61 466.63 412.764 471.611C416.886 476.552 423.021 478.836 431.207 478.836C440.489 478.836 447.181 476.128 451.585 470.754C456.022 465.339 458.286 457.041 458.286 445.55V380.665ZM458.447 488.486C458.737 488.074 459.017 487.657 459.286 487.236L461.502 503.515H489.334V381.665H459.286V445.55C459.286 468.736 450.173 479.836 431.207 479.836C414.459 479.836 405.346 470.463 405.346 447.277V381.665H375.297V457.883C375.297 487.729 391.799 506.722 419.878 506.722C435.542 506.722 450.749 499.392 458.447 488.486Z" fill="#121212"></path><path d="M225.25 441.11C225.25 479.095 245.939 506.721 282.145 506.721C300.125 506.721 316.135 499.568 323.77 487.235V559H353.572V381.664H325.987L322.318 398.463C314.929 384.403 300.618 377.965 282.145 377.965C247.91 377.965 225.25 402.877 225.25 441.11ZM255.299 442.59C255.299 420.883 268.106 405.344 289.042 405.344C309.977 405.344 323.524 420.637 323.524 442.59C323.524 464.542 309.977 479.589 289.042 479.589C268.106 479.589 255.299 464.296 255.299 442.59Z" fill="#002048"></path><path fill-rule="evenodd" clip-rule="evenodd" d="M325.987 381.664H353.572V559H323.77V487.235C323.451 487.75 323.118 488.256 322.77 488.753C314.794 500.153 299.374 506.721 282.145 506.721C245.939 506.721 225.25 479.095 225.25 441.11C225.25 402.877 247.91 377.965 282.145 377.965C300.025 377.965 314.006 383.997 321.585 397.132C321.836 397.568 322.08 398.012 322.318 398.463L325.987 381.664ZM321.897 395.703C313.97 382.809 299.832 376.965 282.145 376.965C264.772 376.965 250.269 383.293 240.117 394.53C229.975 405.756 224.25 421.798 224.25 441.11C224.25 460.275 229.469 476.923 239.352 488.8C249.252 500.698 263.765 507.721 282.145 507.721C299.025 507.721 314.352 501.495 322.77 490.448V560H354.572V380.664H325.182L321.897 395.703ZM265.069 416.488C259.443 422.869 256.299 431.928 256.299 442.59C256.299 453.25 259.442 462.247 265.066 468.564C270.679 474.869 278.833 478.589 289.042 478.589C299.258 478.589 307.602 474.924 313.399 468.643C319.202 462.354 322.524 453.361 322.524 442.59C322.524 431.817 319.202 422.761 313.395 416.409C307.597 410.066 299.253 406.344 289.042 406.344C278.838 406.344 270.684 410.122 265.069 416.488ZM289.042 405.344C268.106 405.344 255.299 420.883 255.299 442.59C255.299 464.296 268.106 479.589 289.042 479.589C309.977 479.589 323.524 464.542 323.524 442.59C323.524 420.637 309.977 405.344 289.042 405.344Z" fill="#121212"></path><path d="M150.935 506.721C182.708 506.721 204.026 492.389 210.047 465.75H182.215C177.918 477.343 167.93 482.055 151.428 482.055C131.477 482.055 120.148 471.202 117.931 449.743L209.555 449.496V440.37C209.555 402.384 186.402 377.965 149.95 377.965C114.236 377.965 89.3601 404.357 89.3601 442.59C89.3601 480.329 114.729 506.721 150.935 506.721ZM150.196 402.631C168.176 402.631 179.752 413.73 179.752 430.503H118.67C121.625 412.25 132.463 402.631 150.196 402.631Z" fill="#002048"></path><path fill-rule="evenodd" clip-rule="evenodd" d="M211.298 464.75L211.023 465.971C207.961 479.515 200.992 489.983 190.714 497.049C180.452 504.106 166.966 507.721 150.935 507.721C132.58 507.721 116.919 501.026 105.849 489.5C94.782 477.977 88.3601 461.686 88.3601 442.59C88.3601 423.255 94.653 406.843 105.533 395.255C116.418 383.664 131.836 376.965 149.95 376.965C168.407 376.965 183.585 383.153 194.146 394.233C204.702 405.307 210.555 421.174 210.555 440.37V450.493L119.048 450.74C120.254 460.767 123.532 468.228 128.723 473.226C134.092 478.396 141.636 481.055 151.428 481.055C159.6 481.055 166.042 479.886 170.94 477.361C175.803 474.855 179.21 470.979 181.278 465.403L181.519 464.75H211.298ZM118.042 450.742C120.504 471.539 131.79 482.055 151.428 482.055C167.93 482.055 177.918 477.343 182.215 465.75H210.047C209.971 466.085 209.893 466.419 209.812 466.75C203.487 492.748 182.308 506.721 150.935 506.721C114.729 506.721 89.3601 480.329 89.3601 442.59C89.3601 404.357 114.236 377.965 149.95 377.965C186.402 377.965 209.555 402.384 209.555 440.37V449.496L117.931 449.743C117.966 450.079 118.003 450.412 118.042 450.742ZM171.029 411.003C166.106 406.339 158.98 403.631 150.196 403.631C141.513 403.631 134.626 405.982 129.554 410.471C124.698 414.768 121.406 421.114 119.858 429.503H178.738C178.517 421.807 175.744 415.47 171.029 411.003ZM179.738 429.503C179.286 413.291 167.816 402.631 150.196 402.631C132.789 402.631 122.027 411.899 118.841 429.503C118.781 429.834 118.724 430.167 118.67 430.503H179.752C179.752 430.168 179.748 429.834 179.738 429.503Z" fill="#121212"></path><path d="M32.046 503.405V434.637C32.046 423.817 35.1967 418.801 41.0683 413.821C46.9399 408.842 52.4719 406.525 61.2791 406.525C64.1584 406.525 66.7836 406.899 69.1547 407.648C71.5259 408.397 74.1511 409.604 77.0304 411.269L89.479 388.547C85.2448 385.384 81.2223 383.137 77.4115 381.805C73.6007 380.474 66.7836 378.393 55.6052 379.808C44.4269 381.223 37.144 388.297 32.5711 394.623C31.7259 391.692 27.1513 379.33 27.1513 379.33L2 381.67L2.08468 503.405H32.046Z" fill="#002048"></path><path fill-rule="evenodd" clip-rule="evenodd" d="M27.6203 379.157L27.1513 379.33C27.6203 379.157 27.6202 379.156 27.6203 379.157L27.8187 379.694C27.9455 380.038 28.1276 380.533 28.3487 381.135C28.791 382.34 29.3895 383.978 30.0145 385.708C31.0481 388.568 32.1612 391.698 32.7556 393.531C37.3991 387.362 44.6416 380.692 55.5425 379.312C66.8204 377.884 73.718 379.985 77.5765 381.333C81.4477 382.686 85.5151 384.962 89.7783 388.146L90.1263 388.406L77.2231 411.958L76.7802 411.702C73.9226 410.05 71.3313 408.86 69.0042 408.125C66.6887 407.394 64.1152 407.025 61.2792 407.025C56.9206 407.025 53.3975 407.598 50.2478 408.774C47.0983 409.95 44.2967 411.739 41.3918 414.203C38.4859 416.667 36.2876 419.112 34.8077 422.252C33.3269 425.394 32.5461 429.275 32.5461 434.637V503.905H1.5851L1.49976 381.214L27.4871 378.797L27.6203 379.157ZM26.8153 379.863L2.50039 382.126L2.58441 502.905H31.5461V434.637C31.5461 429.179 32.3406 425.141 33.9031 421.826C35.4664 418.508 37.7792 415.955 40.745 413.44C43.7116 410.924 46.6118 409.064 49.898 407.837C53.184 406.61 56.8305 406.025 61.2792 406.025C64.2016 406.025 66.8785 406.405 69.3054 407.172C71.5969 407.895 74.1079 409.035 76.8368 410.582L88.8312 388.689C84.7546 385.684 80.8932 383.552 77.2466 382.277C73.4835 380.962 66.7469 378.902 55.6681 380.304C44.6851 381.694 37.5104 388.644 32.9763 394.916L32.3751 395.747L32.0907 394.761C31.6739 393.316 30.3261 389.512 29.0741 386.047C28.4498 384.32 27.8518 382.684 27.4099 381.48C27.189 380.878 27.0071 380.383 26.8804 380.04L26.8153 379.863Z" fill="#121212"></path></svg> 